<?xml version="1.0" encoding="utf-8"?>
<!-- Generator: Adobe Illustrator 16.0.0, SVG Export Plug-In . SVG Version: 6.00 Build 0)  -->
<!DOCTYPE svg PUBLIC "-//W3C//DTD SVG 1.1//EN" "http://www.w3.org/Graphics/SVG/1.1/DTD/svg11.dtd">
<svg version="1.1" id="Capa_1" xmlns="http://www.w3.org/2000/svg" xmlns:xlink="http://www.w3.org/1999/xlink" x="0px" y="0px"
	 width="33.971px" height="39.238px" viewBox="0 0 33.971 39.238" enable-background="new 0 0 33.971 39.238" xml:space="preserve">
<g>
	<path fill="#010202" d="M10.938,22.997c-3.984,0-7.207-3.223-7.207-7.206s3.223-7.206,7.207-7.206c3.982,0,7.205,3.223,7.205,7.206
		C18.143,19.772,14.92,22.997,10.938,22.997z M10.938,4.853C4.89,4.853,0,9.741,0,15.789c0,5.106,3.514,9.416,8.258,10.611
		l1.883,12.132c0.145,0.941,1.485,0.941,1.63,0L13.653,26.4c4.745-1.195,8.257-5.505,8.257-10.611
		C21.873,9.741,16.984,4.853,10.938,4.853L10.938,4.853z"/>
	<path fill="#010202" d="M29.725,7.076v2.83c0,0.781-0.634,1.416-1.415,1.416c-0.782,0-1.416-0.635-1.416-1.416v-2.83h-2.83
		c-0.781,0-1.415-0.635-1.415-1.416c0-0.78,0.634-1.414,1.415-1.414h2.83V1.414C26.894,0.634,27.527,0,28.31,0
		c0.781,0,1.415,0.634,1.415,1.414v2.832h2.831c0.781,0,1.415,0.634,1.415,1.414c0,0.781-0.634,1.416-1.415,1.416H29.725z"/>
</g>
</svg>
