<?xml version="1.0" encoding="utf-8"?>
<!-- Generator: Adobe Illustrator 16.0.0, SVG Export Plug-In . SVG Version: 6.00 Build 0)  -->
<!DOCTYPE svg PUBLIC "-//W3C//DTD SVG 1.1//EN" "http://www.w3.org/Graphics/SVG/1.1/DTD/svg11.dtd">
<svg version="1.1" id="Capa_1" xmlns="http://www.w3.org/2000/svg" xmlns:xlink="http://www.w3.org/1999/xlink" x="0px" y="0px"
	 width="33.938px" height="33.938px" viewBox="0 0 33.938 33.938" enable-background="new 0 0 33.938 33.938" xml:space="preserve">
<path d="M16.969,0C7.597,0,0,7.597,0,16.969c0,9.373,7.598,16.97,16.97,16.97c9.371,0,16.969-7.598,16.969-16.97
	C33.938,7.597,26.34,0,16.969,0z M24.381,20.943c0.138-1.277,0.219-2.604,0.219-3.975c0-1.37-0.081-2.695-0.219-3.972
	c4.632,1.144,6.722,3.164,6.722,3.973C31.103,17.777,29.013,19.799,24.381,20.943z M16.969,31.104c-0.809,0-2.83-2.09-3.973-6.723
	c1.276,0.139,2.602,0.219,3.973,0.219c1.37,0,2.696-0.08,3.973-0.219C19.798,29.014,17.778,31.104,16.969,31.104z M16.969,21.766
	c-1.665,0-3.156-0.109-4.509-0.287c-0.178-1.352-0.288-2.844-0.288-4.51c0-1.664,0.11-3.156,0.287-4.508
	c1.353-0.178,2.845-0.287,4.51-0.287s3.156,0.109,4.509,0.287c0.177,1.352,0.287,2.844,0.287,4.508c0,1.667-0.11,3.159-0.287,4.51
	C20.125,21.656,18.634,21.766,16.969,21.766z M2.834,16.969c0-0.809,2.09-2.829,6.723-3.974c-0.138,1.277-0.219,2.603-0.219,3.973
	c0,1.372,0.081,2.698,0.219,3.975C4.924,19.799,2.834,17.777,2.834,16.969z M16.969,2.834c0.809,0,2.829,2.091,3.973,6.724
	c-1.276-0.139-2.603-0.22-3.973-0.22c-1.371,0-2.696,0.081-3.973,0.22C14.139,4.925,16.161,2.834,16.969,2.834z M30.272,12.242
	c-1.679-0.955-3.851-1.723-6.348-2.228c-0.506-2.497-1.273-4.67-2.228-6.349C25.688,5.087,28.849,8.25,30.272,12.242z M12.241,3.666
	c-0.953,1.679-1.721,3.852-2.227,6.348c-2.497,0.506-4.67,1.273-6.35,2.229C5.088,8.25,8.25,5.088,12.241,3.666z M3.665,21.697
	c1.68,0.955,3.853,1.723,6.35,2.229c0.506,2.496,1.273,4.668,2.227,6.348C8.25,28.85,5.088,25.689,3.665,21.697z M21.697,30.273
	c0.954-1.68,1.722-3.852,2.228-6.35c2.497-0.504,4.669-1.271,6.348-2.227C28.849,25.689,25.688,28.852,21.697,30.273z"/>
</svg>
