<svg id="Capa_1" data-name="Capa 1" xmlns="http://www.w3.org/2000/svg" viewBox="0 0 40 41.56">
  <defs>
    <style>
      .cls-1{fill-rule:evenodd;}.cls-2{font-size:12px;font-family:MyriadPro-Regular, Myriad Pro;}
    </style>
  </defs>
  <path class="cls-1" d="M38.33,18.33H34.9A14.86,14.86,0,0,0,21.67,5.11V1.67a1.67,1.67,0,0,0-3.34,0V5.09A14.84,14.84,0,0,0,6.84,12.74h0a1.66,1.66,0,1,0,2.92,1.6A11.71,11.71,0,0,1,14,10a11.46,11.46,0,0,1,4.33-1.51v5.12a6.65,6.65,0,0,0-4.76,4.76H1.67a1.67,1.67,0,0,0,0,3.34H5.11a15,15,0,0,0,3.81,8.49,15.23,15.23,0,0,0,9.41,4.73v3.44a1.67,1.67,0,0,0,3.34,0V34.89a15.22,15.22,0,0,0,9.45-4.79,15.07,15.07,0,0,0,3.77-8.43h3.44a1.67,1.67,0,0,0,0-3.34m-6.8,0h-5.1a6.65,6.65,0,0,0-4.76-4.76V8.48a11.7,11.7,0,0,1,7,3.62,11.58,11.58,0,0,1,2.91,6.23M20,16.67A3.33,3.33,0,1,1,16.67,20,3.33,3.33,0,0,1,20,16.67m-11.53,5h5.1a6.65,6.65,0,0,0,4.76,4.76v5.1a11.5,11.5,0,0,1-9.86-9.86M29,27.52a12,12,0,0,1-7.28,4V26.43a6.63,6.63,0,0,0,4.76-4.77h5.1A11.57,11.57,0,0,1,29,27.52" transform="translate(0 1.56)"/>
  <text class="cls-2" transform="translate(30.13 10.04)">
    9
  </text>
</svg>
