<?xml version="1.0" encoding="utf-8"?>
<!-- Generator: Adobe Illustrator 16.0.0, SVG Export Plug-In . SVG Version: 6.00 Build 0)  -->
<!DOCTYPE svg PUBLIC "-//W3C//DTD SVG 1.1//EN" "http://www.w3.org/Graphics/SVG/1.1/DTD/svg11.dtd">
<svg version="1.1" id="Capa_1" xmlns="http://www.w3.org/2000/svg" xmlns:xlink="http://www.w3.org/1999/xlink" x="0px" y="0px"
	 width="40.001px" height="40px" viewBox="0 0 40.001 40" enable-background="new 0 0 40.001 40" xml:space="preserve">
<path fill-rule="evenodd" clip-rule="evenodd" d="M38.335,18.333h-3.439c-0.242-2.094-1.072-5.576-3.957-8.638
	c-3.173-3.372-7.047-4.32-9.272-4.588v-3.44C21.666,0.747,20.922,0,20,0c-0.921,0-1.666,0.747-1.666,1.667v3.427
	c-1.661,0.175-4.008,0.697-6.408,2.216c-2.909,1.845-4.432,4.234-5.09,5.435v0.001c-0.443,0.807-0.149,1.819,0.656,2.263
	c0.807,0.443,1.82,0.15,2.265-0.656c0.501-0.912,1.761-2.916,4.242-4.391c1.597-0.948,3.144-1.351,4.335-1.515v5.124
	c-2.336,0.604-4.16,2.428-4.765,4.763H1.666C0.748,18.333,0,19.079,0,20c0,0.922,0.748,1.665,1.666,1.665h3.439
	c0.237,2.07,1.047,5.47,3.815,8.491c3.19,3.479,7.151,4.456,9.412,4.732v3.444c0,0.92,0.745,1.667,1.666,1.667
	c0.922,0,1.667-0.747,1.667-1.667v-3.447c2.271-0.279,6.26-1.269,9.453-4.781c2.733-3.008,3.537-6.376,3.776-8.438h3.439
	c0.922,0,1.666-0.744,1.666-1.666C40.001,19.08,39.257,18.333,38.335,18.333 M31.533,18.333h-5.103
	c-0.604-2.335-2.43-4.158-4.765-4.763V8.479c1.797,0.271,4.625,1.084,6.951,3.618C30.618,14.28,31.298,16.706,31.533,18.333
	 M20,16.665c1.842,0,3.332,1.494,3.332,3.335s-1.49,3.333-3.332,3.333c-1.84,0-3.334-1.492-3.334-3.333S18.16,16.665,20,16.665
	 M8.469,21.665h5.102c0.604,2.336,2.428,4.161,4.764,4.766v5.102c-1.699-0.248-4.309-0.987-6.576-3.242
	C9.465,26.012,8.719,23.376,8.469,21.665 M28.947,27.523c-2.342,2.781-5.389,3.691-7.281,3.993v-5.086
	c2.335-0.604,4.16-2.43,4.765-4.766h5.104C31.311,23.217,30.695,25.451,28.947,27.523"/>
</svg>
