<?xml version="1.0" encoding="utf-8"?>
<!-- Generator: Adobe Illustrator 16.0.0, SVG Export Plug-In . SVG Version: 6.00 Build 0)  -->
<!DOCTYPE svg PUBLIC "-//W3C//DTD SVG 1.1//EN" "http://www.w3.org/Graphics/SVG/1.1/DTD/svg11.dtd">
<svg version="1.1" id="Capa_1" xmlns="http://www.w3.org/2000/svg" xmlns:xlink="http://www.w3.org/1999/xlink" x="0px" y="0px"
	 width="36px" height="29px" viewBox="0 0 36 29" enable-background="new 0 0 36 29" xml:space="preserve">
<g>
	<path d="M7.601,0.761L0.782,7.538c-1.043,1.037-1.043,2.73,0,3.767c1.043,1.037,2.748,1.037,3.791,0l2.238-2.226v12.266
		C6.812,22.811,8.007,24,9.483,24s2.672-1.188,2.672-2.655V9.054l2.264,2.25c1.045,1.037,2.748,1.037,3.791,0
		c0.535-0.531,0.789-1.188,0.789-1.871s-0.254-1.364-0.789-1.87l-6.818-6.777c-0.51-0.506-1.172-0.784-1.883-0.784
		C8.771-0.024,8.085,0.254,7.601,0.761L7.601,0.761z"/>
	<path d="M28.397,28.238l6.818-6.776c1.045-1.037,1.045-2.73,0-3.767c-1.043-1.037-2.748-1.037-3.789,0l-2.24,2.226V7.655
		C29.187,6.188,27.991,5,26.515,5s-2.672,1.188-2.672,2.655v12.29l-2.264-2.25c-1.043-1.037-2.748-1.037-3.791,0
		c-0.535,0.531-0.789,1.188-0.789,1.871s0.254,1.365,0.789,1.87l6.82,6.777c0.508,0.506,1.17,0.784,1.883,0.784
		C27.228,29.023,27.915,28.744,28.397,28.238L28.397,28.238z"/>
</g>
</svg>
