<?xml version="1.0" encoding="utf-8"?>
<!-- Generator: Adobe Illustrator 16.0.0, SVG Export Plug-In . SVG Version: 6.00 Build 0)  -->
<!DOCTYPE svg PUBLIC "-//W3C//DTD SVG 1.1//EN" "http://www.w3.org/Graphics/SVG/1.1/DTD/svg11.dtd">
<svg version="1.1" id="Capa_1" xmlns="http://www.w3.org/2000/svg" xmlns:xlink="http://www.w3.org/1999/xlink" x="0px" y="0px"
	 width="35.418px" height="29.585px" viewBox="0 0 35.418 29.585" enable-background="new 0 0 35.418 29.585" xml:space="preserve">
<g>
	<path d="M31.156,0l-5.644,5.57c-2.3-1.247-4.924-2.109-7.803-2.109C7.293,3.461,0,14.92,0,14.92s2.337,5.02,7.511,8.414
		l-4.645,4.584l1.646,1.667L32.801,1.667L31.156,0z M10.418,14.92c0-4.062,3.229-7.291,7.291-7.291c1.62,0,3.098,0.522,4.3,1.397
		l-3.068,3.028c-0.378-0.164-0.793-0.26-1.232-0.26c-1.727,0-3.125,1.398-3.125,3.125c0,0.424,0.091,0.825,0.245,1.192l-3.069,3.029
		C10.917,17.955,10.418,16.505,10.418,14.92z"/>
	<path d="M29.447,8.262l-4.725,4.662C24.899,13.558,25,14.226,25,14.92c0,4.062-3.229,7.291-7.292,7.291
		c-0.729,0-1.43-0.107-2.091-0.302l-3.628,3.581c1.708,0.551,3.609,0.889,5.72,0.889c12.5,0,17.709-11.459,17.709-11.459
		S33.208,11.4,29.447,8.262z"/>
</g>
</svg>
