<?xml version="1.0" encoding="utf-8"?>
<!-- Generator: Adobe Illustrator 16.0.0, SVG Export Plug-In . SVG Version: 6.00 Build 0)  -->
<!DOCTYPE svg PUBLIC "-//W3C//DTD SVG 1.1//EN" "http://www.w3.org/Graphics/SVG/1.1/DTD/svg11.dtd">
<svg version="1.1" id="Capa_1" xmlns="http://www.w3.org/2000/svg" xmlns:xlink="http://www.w3.org/1999/xlink" x="0px" y="0px"
	 width="35.418px" height="22.917px" viewBox="0 0 35.418 22.917" enable-background="new 0 0 35.418 22.917" xml:space="preserve">
<g>
	<path d="M20.834,11.458c0,1.727-1.398,3.125-3.125,3.125c-1.727,0-3.125-1.398-3.125-3.125s1.398-3.125,3.125-3.125
		C19.436,8.333,20.834,9.732,20.834,11.458"/>
	<path d="M17.709,0C7.293,0,0,11.458,0,11.458s5.312,11.459,17.709,11.459c12.5,0,17.709-11.459,17.709-11.459S28.231,0,17.709,0z
		 M17.709,18.75c-4.062,0-7.291-3.229-7.291-7.291s3.229-7.291,7.291-7.291c4.063,0,7.292,3.229,7.292,7.291
		S21.772,18.75,17.709,18.75z"/>
</g>
</svg>
