<?xml version="1.0" encoding="utf-8"?>
<!-- Generator: Adobe Illustrator 16.0.0, SVG Export Plug-In . SVG Version: 6.00 Build 0)  -->
<!DOCTYPE svg PUBLIC "-//W3C//DTD SVG 1.1//EN" "http://www.w3.org/Graphics/SVG/1.1/DTD/svg11.dtd">
<svg version="1.1" id="Capa_1" xmlns="http://www.w3.org/2000/svg" xmlns:xlink="http://www.w3.org/1999/xlink" x="0px" y="0px"
	 width="29.705px" height="30px" viewBox="0 0 29.705 30" enable-background="new 0 0 29.705 30" xml:space="preserve">
<g>
	<path fill-rule="evenodd" clip-rule="evenodd" d="M26.168,25.715c0,0.188-0.074,0.371-0.206,0.505
		c-0.134,0.134-0.313,0.208-0.5,0.208H4.244c-0.392,0-0.706-0.319-0.706-0.713V12.856c0-0.394,0.314-0.713,0.706-0.713h21.218
		c0.187,0,0.366,0.074,0.5,0.208c0.132,0.135,0.206,0.316,0.206,0.505V25.715z M26.168,0H23.34v7.143
		c0,0.19-0.074,0.372-0.207,0.505c-0.133,0.135-0.312,0.21-0.5,0.21H4.244c-0.392,0-0.706-0.319-0.706-0.715V0H1.414
		C0.634,0,0,0.64,0,1.429v27.143c0,0.379,0.148,0.742,0.414,1.011S1.039,30,1.414,30h26.877c0.375,0,0.734-0.149,1-0.418
		s0.414-0.632,0.414-1.011V3.572L26.168,0z"/>
	<rect x="4.952" fill-rule="evenodd" clip-rule="evenodd" width="16.975" height="6.429"/>
</g>
</svg>
