<?xml version="1.0" encoding="iso-8859-1"?>
<!-- Generator: Adobe Illustrator 19.0.0, SVG Export Plug-In . SVG Version: 6.00 Build 0)  -->
<svg version="1.1" id="Capa_1" xmlns="http://www.w3.org/2000/svg" xmlns:xlink="http://www.w3.org/1999/xlink" x="0px" y="0px"
	 viewBox="0 0 512 512" style="enable-background:new 0 0 512 512;" xml:space="preserve">
<g>
	<g>
		<g>
			<path d="M256,0C114.615,0,0,114.615,0,256s114.615,256,256,256s256-114.615,256-256C511.84,114.682,397.318,0.16,256,0z
				 M256,494.933C124.041,494.933,17.067,387.959,17.067,256S124.041,17.067,256,17.067S494.933,124.041,494.933,256
				C494.785,387.898,387.898,494.785,256,494.933z"/>
			<path d="M321.731,190.269c-11.435-54.144-61.024-91.58-116.23-87.744c-55.205,3.836-99.14,47.771-102.976,102.977
				s33.6,104.794,87.744,116.229c11.435,54.144,61.024,91.58,116.229,87.744c55.205-3.836,99.14-47.771,102.976-102.977
				S375.875,201.703,321.731,190.269z M307.155,213.333h-47.339c14.698-6.681,30.866-9.471,46.953-8.103
				C307.001,207.927,307.155,210.629,307.155,213.333z M220.01,247.467c3.555-5.472,7.671-10.558,12.282-15.175
				c0.673-0.672,1.406-1.244,2.094-1.892h71.18c-1.074,5.829-2.698,11.544-4.85,17.067H220.01z M291.99,264.533
				c-3.555,5.472-7.671,10.558-12.282,15.175c-0.673,0.672-1.406,1.244-2.094,1.892h-71.18c1.074-5.829,2.698-11.544,4.851-17.067
				H291.99z M197.588,253.252c-5.135,11.422-8.299,23.631-9.357,36.11c-0.025,0.267-0.156,0.498-0.156,0.771
				c0,0.169,0.086,0.31,0.096,0.477c-0.303,4.338-0.352,8.69-0.147,13.034c-15.527-4.296-29.675-12.543-41.066-23.936
				c-27.885-27.79-35.467-70.027-18.988-105.78c16.478-35.753,53.516-57.425,92.758-54.277s72.349,30.449,82.916,68.373
				c-28.409-1.322-56.235,8.358-77.691,27.025c-0.602,0.415-1.147,0.907-1.621,1.465c-1.368,1.239-2.787,2.391-4.107,3.71
				c-9.16,9.199-16.622,19.945-22.042,31.742C197.948,252.377,197.748,252.807,197.588,253.252z M204.845,298.667h47.337
				c-14.697,6.681-30.865,9.471-46.951,8.103C205,304.073,204.845,301.371,204.845,298.667z M365.042,365.042L365.042,365.042
				c-23.552,23.616-57.878,32.939-90.141,24.483c-32.263-8.456-57.603-33.418-66.544-65.55c1.66,0.074,3.316,0.237,4.977,0.237
				c26.737,0.002,52.569-9.683,72.714-27.262c0.602-0.415,1.147-0.907,1.621-1.465c1.368-1.239,2.787-2.391,4.107-3.711
				c9.16-9.199,16.622-19.945,22.041-31.742c0.236-0.41,0.435-0.841,0.596-1.286c5.135-11.422,8.299-23.631,9.357-36.11
				c0.025-0.267,0.156-0.498,0.156-0.771c0-0.169-0.086-0.31-0.096-0.477c0.302-4.338,0.352-8.69,0.147-13.034
				c32.132,8.941,57.094,34.281,65.55,66.544C397.981,307.164,388.658,341.49,365.042,365.042z"/>
		</g>
	</g>
</g>
<g>
</g>
<g>
</g>
<g>
</g>
<g>
</g>
<g>
</g>
<g>
</g>
<g>
</g>
<g>
</g>
<g>
</g>
<g>
</g>
<g>
</g>
<g>
</g>
<g>
</g>
<g>
</g>
<g>
</g>
</svg>
