<?xml version="1.0" encoding="utf-8"?>
<!-- Generator: Adobe Illustrator 16.0.0, SVG Export Plug-In . SVG Version: 6.00 Build 0)  -->
<!DOCTYPE svg PUBLIC "-//W3C//DTD SVG 1.1//EN" "http://www.w3.org/Graphics/SVG/1.1/DTD/svg11.dtd">
<svg version="1.1" id="Capa_1" xmlns="http://www.w3.org/2000/svg" xmlns:xlink="http://www.w3.org/1999/xlink" x="0px" y="0px"
	 width="28px" height="36px" viewBox="0 0 28 36" enable-background="new 0 0 28 36" xml:space="preserve">
<g>
	<path fill-rule="evenodd" clip-rule="evenodd" d="M19.854,32.373H8.144c-1.516,0-2.745-1.217-2.745-2.721V15.279h17.203v14.373
		c0,1.504-1.23,2.721-2.746,2.721H19.854z M3.66,8.342h20.68v3.311H3.66V8.342z M10.751,4.081c0-0.252,0.206-0.454,0.458-0.454
		h5.582c0.12,0,0.238,0.048,0.324,0.133s0.133,0.2,0.133,0.321v0.634h-6.497V4.081z M24.34,4.715h-3.432V4.081
		C20.908,1.826,19.064,0,16.791,0h-5.582C8.936,0,7.092,1.826,7.092,4.081v0.634H3.66C1.639,4.715,0,6.339,0,8.342v3.311
		c0.035,1.249,0.685,2.399,1.738,3.084v14.916C1.738,33.159,4.607,36,8.144,36h11.713c3.536,0,6.405-2.841,6.405-6.348V14.736
		c1.054-0.685,1.703-1.835,1.738-3.084V8.342c0-0.962-0.387-1.884-1.072-2.564C26.242,5.098,25.311,4.715,24.34,4.715L24.34,4.715z"
		/>
	<path fill-rule="evenodd" clip-rule="evenodd" d="M10.938,18.857c-1.209,0-2.188,0.824-2.188,1.839v8.322
		c0,1.016,0.979,1.839,2.188,1.839c1.207,0,2.188-0.823,2.188-1.839v-8.322c0-0.487-0.23-0.956-0.641-1.301
		S11.517,18.857,10.938,18.857z"/>
	<path fill-rule="evenodd" clip-rule="evenodd" d="M17.938,18.857c-1.207,0-2.188,0.824-2.188,1.839v8.322
		c0,1.016,0.98,1.839,2.188,1.839c1.209,0,2.188-0.823,2.188-1.839v-8.322c0-0.487-0.229-0.956-0.641-1.301
		C19.074,19.051,18.519,18.857,17.938,18.857z"/>
</g>
</svg>
